<svg id="eG6LnkEbA091" xmlns="http://www.w3.org/2000/svg" xmlns:xlink="http://www.w3.org/1999/xlink" viewBox="0 0 300 300" shape-rendering="geometricPrecision" text-rendering="geometricPrecision"><g transform="translate(.178097-.661609)"><path d="M68.636286,108.144873l32.405691.000002" transform="matrix(.767612 0 0-1 37.599206 218.840333)" fill="none" stroke="#4d5b9e" stroke-width="8" stroke-linecap="round"/><path d="M128.562401,108.144875l95.65967-.000002" transform="matrix(.767612 0 0-1 37.599206 218.840333)" fill="none" stroke="#4d5b9e" stroke-width="8" stroke-linecap="round"/><path d="M68.636286,108.144873h109.674556" transform="matrix(.767612 0 0 1 37.599206 42.694837)" fill="none" stroke="#4d5b9e" stroke-width="8" stroke-linecap="round"/><path d="M68.636286,108.144873l50.56266.000003" transform="matrix(.767612 0 0-1 37.243002 298.772636)" fill="none" stroke="#4d5b9e" stroke-width="8" stroke-linecap="round"/><path d="M205.505571,108.144873h18.7165" transform="matrix(.767612 0 0 1 37.599206 42.694837)" fill="none" stroke="#4d5b9e" stroke-width="8" stroke-linecap="round"/><path d="M146.556517,108.144876l77.665554-.000003" transform="matrix(.767612 0 0-1 37.243001 298.081305)" fill="none" stroke="#4d5b9e" stroke-width="8" stroke-linecap="round"/><ellipse rx="10.499979" ry="10.5" transform="matrix(1.000002 0 0 1 125.75484 110.695459)" fill="rgba(255,255,255,0)" stroke="#4d5b9e" stroke-width="7"/><ellipse rx="10.499979" ry="10.5" transform="matrix(1.000002 0 0 1 184.847748 150.83971)" fill="rgba(255,255,255,0)" stroke="#4d5b9e" stroke-width="7"/><ellipse rx="10.5" ry="10.5" transform="translate(139.143796 190.627761)" fill="rgba(255,255,255,0)" stroke="#4d5b9e" stroke-width="7"/></g></svg>
